<svg width="239" height="177" viewBox="0 0 239 177" fill="none" xmlns="http://www.w3.org/2000/svg">
<path d="M56.3483 0.908752C25.6765 0.908752 0.8125 25.6753 0.8125 56.2288C0.8125 86.7717 25.6765 111.538 56.3483 111.538C56.3483 111.538 56.0796 132.087 39.3155 161.662C37.4533 167.588 40.7728 173.898 46.7274 175.742C50.9524 177.065 55.3982 175.779 58.269 172.785C96.8162 130.8 111.905 81.3878 111.905 56.2288C111.905 25.6753 87.0415 0.908752 56.3483 0.908752Z" fill="white" fill-opacity="0.62"/>
<path d="M183.441 0.908752C152.769 0.908752 127.905 25.6757 127.905 56.2288C127.905 86.7717 152.769 111.538 183.441 111.538C183.441 111.538 183.172 132.087 166.408 161.662C164.546 167.588 167.866 173.898 173.82 175.742C178.045 177.065 182.491 175.779 185.361 172.785C223.909 130.8 238.998 81.3878 238.998 56.2288C238.998 25.6753 214.134 0.908752 183.441 0.908752Z" fill="white" fill-opacity="0.62"/>
</svg>
